<?xml version="1.0" encoding="UTF-8"?>
<?xml-stylesheet href="https://cdnjs.cloudflare.com/ajax/libs/font-awesome/6.5.1/css/all.min.css" type="text/css"?>
<svg aria-roledescription="er" role="graphics-document document" viewBox="0 0 1776.09521484375 774" style="max-width: 100%; max-height: 100%; background: white;" xmlns="http://www.w3.org/2000/svg" width="100%" id="mermaid-image-editor"><style>#mermaid-image-editor{font-family:"trebuchet ms",verdana,arial,sans-serif;font-size:16px;fill:#333;}#mermaid-image-editor .error-icon{fill:#552222;}#mermaid-image-editor .error-text{fill:#552222;stroke:#552222;}#mermaid-image-editor .edge-thickness-normal{stroke-width:1px;}#mermaid-image-editor .edge-thickness-thick{stroke-width:3.5px;}#mermaid-image-editor .edge-pattern-solid{stroke-dasharray:0;}#mermaid-image-editor .edge-thickness-invisible{stroke-width:0;fill:none;}#mermaid-image-editor .edge-pattern-dashed{stroke-dasharray:3;}#mermaid-image-editor .edge-pattern-dotted{stroke-dasharray:2;}#mermaid-image-editor .marker{fill:#333333;stroke:#333333;}#mermaid-image-editor .marker.cross{stroke:#333333;}#mermaid-image-editor svg{font-family:"trebuchet ms",verdana,arial,sans-serif;font-size:16px;}#mermaid-image-editor p{margin:0;}#mermaid-image-editor .entityBox{fill:#ECECFF;stroke:#9370DB;}#mermaid-image-editor .attributeBoxOdd{fill:#ffffff;stroke:#9370DB;}#mermaid-image-editor .attributeBoxEven{fill:#f2f2f2;stroke:#9370DB;}#mermaid-image-editor .relationshipLabelBox{fill:hsl(80, 100%, 96.2745098039%);opacity:0.7;background-color:hsl(80, 100%, 96.2745098039%);}#mermaid-image-editor .relationshipLabelBox rect{opacity:0.5;}#mermaid-image-editor .relationshipLine{stroke:#333333;}#mermaid-image-editor .entityTitleText{text-anchor:middle;font-size:18px;fill:#333;}#mermaid-image-editor #MD_PARENT_START{fill:#f5f5f5!important;stroke:#333333!important;stroke-width:1;}#mermaid-image-editor #MD_PARENT_END{fill:#f5f5f5!important;stroke:#333333!important;stroke-width:1;}#mermaid-image-editor :root{--mermaid-font-family:"trebuchet ms",verdana,arial,sans-serif;}</style><g></g><defs><marker orient="auto" markerHeight="240" markerWidth="190" refY="7" refX="0" id="MD_PARENT_START"><path d="M 18,7 L9,13 L1,7 L9,1 Z"></path></marker></defs><defs><marker orient="auto" markerHeight="28" markerWidth="20" refY="7" refX="19" id="MD_PARENT_END"><path d="M 18,7 L9,13 L1,7 L9,1 Z"></path></marker></defs><defs><marker orient="auto" markerHeight="18" markerWidth="18" refY="9" refX="0" id="ONLY_ONE_START"><path d="M9,0 L9,18 M15,0 L15,18" fill="none" stroke="gray"></path></marker></defs><defs><marker orient="auto" markerHeight="18" markerWidth="18" refY="9" refX="18" id="ONLY_ONE_END"><path d="M3,0 L3,18 M9,0 L9,18" fill="none" stroke="gray"></path></marker></defs><defs><marker orient="auto" markerHeight="18" markerWidth="30" refY="9" refX="0" id="ZERO_OR_ONE_START"><circle r="6" cy="9" cx="21" fill="white" stroke="gray"></circle><path d="M9,0 L9,18" fill="none" stroke="gray"></path></marker></defs><defs><marker orient="auto" markerHeight="18" markerWidth="30" refY="9" refX="30" id="ZERO_OR_ONE_END"><circle r="6" cy="9" cx="9" fill="white" stroke="gray"></circle><path d="M21,0 L21,18" fill="none" stroke="gray"></path></marker></defs><defs><marker orient="auto" markerHeight="36" markerWidth="45" refY="18" refX="18" id="ONE_OR_MORE_START"><path d="M0,18 Q 18,0 36,18 Q 18,36 0,18 M42,9 L42,27" fill="none" stroke="gray"></path></marker></defs><defs><marker orient="auto" markerHeight="36" markerWidth="45" refY="18" refX="27" id="ONE_OR_MORE_END"><path d="M3,9 L3,27 M9,18 Q27,0 45,18 Q27,36 9,18" fill="none" stroke="gray"></path></marker></defs><defs><marker orient="auto" markerHeight="36" markerWidth="57" refY="18" refX="18" id="ZERO_OR_MORE_START"><circle r="6" cy="18" cx="48" fill="white" stroke="gray"></circle><path d="M0,18 Q18,0 36,18 Q18,36 0,18" fill="none" stroke="gray"></path></marker></defs><defs><marker orient="auto" markerHeight="36" markerWidth="57" refY="18" refX="39" id="ZERO_OR_MORE_END"><circle r="6" cy="18" cx="9" fill="white" stroke="gray"></circle><path d="M21,18 Q39,0 57,18 Q39,36 21,18" fill="none" stroke="gray"></path></marker></defs><path marker-start="url(#ONLY_ONE_START)" marker-end="url(#ZERO_OR_MORE_END)" style="stroke: gray; fill: none;" d="M85.72,121L85.72,131.167C85.72,141.333,85.72,161.667,207.566,203.038C329.412,244.41,573.105,306.82,694.951,338.025L816.797,369.23" class="er relationshipLine"></path><path marker-start="url(#ONLY_ONE_START)" marker-end="url(#ZERO_OR_MORE_END)" style="stroke: gray; fill: none;" d="M320.826,110L320.826,122C320.826,134,320.826,158,403.488,199.973C486.15,241.947,651.474,301.893,734.135,331.867L816.797,361.84" class="er relationshipLine"></path><path marker-start="url(#ONLY_ONE_START)" marker-end="url(#ZERO_OR_MORE_END)" style="stroke: gray; fill: none;" d="M556.086,110L556.086,122C556.086,134,556.086,158,599.538,196.985C642.99,235.97,729.893,289.939,773.345,316.924L816.797,343.909" class="er relationshipLine"></path><path marker-start="url(#ONLY_ONE_START)" marker-end="url(#ZERO_OR_MORE_END)" style="stroke: gray; fill: none;" d="M775.14,110L775.14,122C775.14,134,775.14,158,782.083,182.817C789.026,207.634,802.911,233.269,809.854,246.086L816.797,258.903" class="er relationshipLine"></path><path marker-start="url(#ONLY_ONE_START)" marker-end="url(#ZERO_OR_MORE_END)" style="stroke: gray; fill: none;" d="M997.228,110L997.228,122C997.228,134,997.228,158,990.285,182.817C983.342,207.634,969.457,233.269,962.514,246.086L955.571,258.903" class="er relationshipLine"></path><path marker-start="url(#ONLY_ONE_START)" marker-end="url(#ZERO_OR_MORE_END)" style="stroke: gray; fill: none;" d="M1242.647,110L1242.647,122C1242.647,134,1242.647,158,1194.801,197.516C1146.955,237.032,1051.263,292.064,1003.417,319.58L955.571,347.096" class="er relationshipLine"></path><path marker-start="url(#ONLY_ONE_START)" marker-end="url(#ZERO_OR_MORE_END)" style="stroke: gray; fill: none;" d="M1480.66,110L1480.66,122C1480.66,134,1480.66,158,1393.145,200.179C1305.63,242.358,1130.601,302.715,1043.086,332.894L955.571,363.073" class="er relationshipLine"></path><path marker-start="url(#ONLY_ONE_START)" marker-end="url(#ONLY_ONE_END)" style="stroke: gray; fill: none;" d="M886.184,542L886.184,550.333C886.184,558.667,886.184,575.333,886.184,592C886.184,608.667,886.184,625.333,886.184,633.667L886.184,642" class="er relationshipLine"></path><path marker-start="url(#ZERO_OR_MORE_START)" marker-end="url(#ZERO_OR_MORE_END)" style="stroke: gray; fill: none;" d="M1699.128,132L1699.128,140.333C1699.128,148.667,1699.128,165.333,1575.202,204.917C1451.275,244.501,1203.423,307.002,1079.497,338.252L955.571,369.503" class="er relationshipLine"></path><g transform="translate(20,31 )" id="entity-FECHARECEPCION-6812e002-3f9d-5347-923f-db348a0a06eb"><rect height="90" width="131.439453125" y="0" x="0" class="er entityBox"></rect><text transform="translate(65.7197265625,12)" style="dominant-baseline: middle; text-anchor: middle; font-size: 12px;" y="0" x="0" id="text-entity-FECHARECEPCION-6812e002-3f9d-5347-923f-db348a0a06eb" class="er entityLabel">FECHA_RECEPCION</text><rect height="22" width="40.342132568359375" y="24" x="0" class="er attributeBoxOdd"></rect><text transform="translate(5,35)" style="dominant-baseline: middle; font-size: 10.2px;" y="0" x="0" id="text-entity-FECHARECEPCION-6812e002-3f9d-5347-923f-db348a0a06eb-attr-1-type" class="er entityLabel">int</text><rect height="22" width="59.1533203125" y="24" x="40.342132568359375" class="er attributeBoxOdd"></rect><text transform="translate(45.342132568359375,35)" style="dominant-baseline: middle; font-size: 10.2px;" y="0" x="0" id="text-entity-FECHARECEPCION-6812e002-3f9d-5347-923f-db348a0a06eb-attr-1-name" class="er entityLabel">id_fecha</text><rect height="22" width="31.944000244140625" y="24" x="99.49545288085938" class="er attributeBoxOdd"></rect><text transform="translate(104.49545288085938,35)" style="dominant-baseline: middle; font-size: 10.2px;" y="0" x="0" id="text-entity-FECHARECEPCION-6812e002-3f9d-5347-923f-db348a0a06eb-attr-1-key" class="er entityLabel">PK</text><rect height="22" width="40.342132568359375" y="46" x="0" class="er attributeBoxEven"></rect><text transform="translate(5,57)" style="dominant-baseline: middle; font-size: 10.2px;" y="0" x="0" id="text-entity-FECHARECEPCION-6812e002-3f9d-5347-923f-db348a0a06eb-attr-2-type" class="er entityLabel">int</text><rect height="22" width="59.1533203125" y="46" x="40.342132568359375" class="er attributeBoxEven"></rect><text transform="translate(45.342132568359375,57)" style="dominant-baseline: middle; font-size: 10.2px;" y="0" x="0" id="text-entity-FECHARECEPCION-6812e002-3f9d-5347-923f-db348a0a06eb-attr-2-name" class="er entityLabel">factor</text><rect height="22" width="31.944000244140625" y="46" x="99.49545288085938" class="er attributeBoxEven"></rect><text transform="translate(104.49545288085938,57)" style="dominant-baseline: middle; font-size: 10.2px;" y="0" x="0" id="text-entity-FECHARECEPCION-6812e002-3f9d-5347-923f-db348a0a06eb-attr-2-key" class="er entityLabel"></text><rect height="22" width="40.342132568359375" y="68" x="0" class="er attributeBoxOdd"></rect><text transform="translate(5,79)" style="dominant-baseline: middle; font-size: 10.2px;" y="0" x="0" id="text-entity-FECHARECEPCION-6812e002-3f9d-5347-923f-db348a0a06eb-attr-3-type" class="er entityLabel">date</text><rect height="22" width="59.1533203125" y="68" x="40.342132568359375" class="er attributeBoxOdd"></rect><text transform="translate(45.342132568359375,79)" style="dominant-baseline: middle; font-size: 10.2px;" y="0" x="0" id="text-entity-FECHARECEPCION-6812e002-3f9d-5347-923f-db348a0a06eb-attr-3-name" class="er entityLabel">fecha</text><rect height="22" width="31.944000244140625" y="68" x="99.49545288085938" class="er attributeBoxOdd"></rect><text transform="translate(104.49545288085938,79)" style="dominant-baseline: middle; font-size: 10.2px;" y="0" x="0" id="text-entity-FECHARECEPCION-6812e002-3f9d-5347-923f-db348a0a06eb-attr-3-key" class="er entityLabel"></text></g><g transform="translate(251.439453125,42 )" id="entity-COLABORADOR-490b5579-1e44-5b84-9f7e-6ae2c6e7b7d3"><rect height="68" width="138.77386474609375" y="0" x="0" class="er entityBox"></rect><text transform="translate(69.38693237304688,12)" style="dominant-baseline: middle; text-anchor: middle; font-size: 12px;" y="0" x="0" id="text-entity-COLABORADOR-490b5579-1e44-5b84-9f7e-6ae2c6e7b7d3" class="er entityLabel">COLABORADOR</text><rect height="22" width="36.61909484863281" y="24" x="0" class="er attributeBoxOdd"></rect><text transform="translate(5,35)" style="dominant-baseline: middle; font-size: 10.2px;" y="0" x="0" id="text-entity-COLABORADOR-490b5579-1e44-5b84-9f7e-6ae2c6e7b7d3-attr-1-type" class="er entityLabel">int</text><rect height="22" width="79.46708679199219" y="24" x="36.61909484863281" class="er attributeBoxOdd"></rect><text transform="translate(41.61909484863281,35)" style="dominant-baseline: middle; font-size: 10.2px;" y="0" x="0" id="text-entity-COLABORADOR-490b5579-1e44-5b84-9f7e-6ae2c6e7b7d3-attr-1-name" class="er entityLabel">id_colaborador</text><rect height="22" width="22.68768310546875" y="24" x="116.086181640625" class="er attributeBoxOdd"></rect><text transform="translate(121.086181640625,35)" style="dominant-baseline: middle; font-size: 10.2px;" y="0" x="0" id="text-entity-COLABORADOR-490b5579-1e44-5b84-9f7e-6ae2c6e7b7d3-attr-1-key" class="er entityLabel">PK</text><rect height="22" width="36.61909484863281" y="46" x="0" class="er attributeBoxEven"></rect><text transform="translate(5,57)" style="dominant-baseline: middle; font-size: 10.2px;" y="0" x="0" id="text-entity-COLABORADOR-490b5579-1e44-5b84-9f7e-6ae2c6e7b7d3-attr-2-type" class="er entityLabel">string</text><rect height="22" width="79.46708679199219" y="46" x="36.61909484863281" class="er attributeBoxEven"></rect><text transform="translate(41.61909484863281,57)" style="dominant-baseline: middle; font-size: 10.2px;" y="0" x="0" id="text-entity-COLABORADOR-490b5579-1e44-5b84-9f7e-6ae2c6e7b7d3-attr-2-name" class="er entityLabel">colaborador</text><rect height="22" width="22.68768310546875" y="46" x="116.086181640625" class="er attributeBoxEven"></rect><text transform="translate(121.086181640625,57)" style="dominant-baseline: middle; font-size: 10.2px;" y="0" x="0" id="text-entity-COLABORADOR-490b5579-1e44-5b84-9f7e-6ae2c6e7b7d3-attr-2-key" class="er entityLabel"></text></g><g transform="translate(490.21331787109375,42 )" id="entity-SOLICITANTE-7bfce812-4324-55d3-ba46-4fc63b543575"><rect height="68" width="131.74533081054688" y="0" x="0" class="er entityBox"></rect><text transform="translate(65.87266540527344,12)" style="dominant-baseline: middle; text-anchor: middle; font-size: 12px;" y="0" x="0" id="text-entity-SOLICITANTE-7bfce812-4324-55d3-ba46-4fc63b543575" class="er entityLabel">SOLICITANTE</text><rect height="22" width="36.61909484863281" y="24" x="0" class="er attributeBoxOdd"></rect><text transform="translate(5,35)" style="dominant-baseline: middle; font-size: 10.2px;" y="0" x="0" id="text-entity-SOLICITANTE-7bfce812-4324-55d3-ba46-4fc63b543575-attr-1-type" class="er entityLabel">int</text><rect height="22" width="72.43855285644531" y="24" x="36.61909484863281" class="er attributeBoxOdd"></rect><text transform="translate(41.61909484863281,35)" style="dominant-baseline: middle; font-size: 10.2px;" y="0" x="0" id="text-entity-SOLICITANTE-7bfce812-4324-55d3-ba46-4fc63b543575-attr-1-name" class="er entityLabel">id_solicitante</text><rect height="22" width="22.68768310546875" y="24" x="109.05764770507812" class="er attributeBoxOdd"></rect><text transform="translate(114.05764770507812,35)" style="dominant-baseline: middle; font-size: 10.2px;" y="0" x="0" id="text-entity-SOLICITANTE-7bfce812-4324-55d3-ba46-4fc63b543575-attr-1-key" class="er entityLabel">PK</text><rect height="22" width="36.61909484863281" y="46" x="0" class="er attributeBoxEven"></rect><text transform="translate(5,57)" style="dominant-baseline: middle; font-size: 10.2px;" y="0" x="0" id="text-entity-SOLICITANTE-7bfce812-4324-55d3-ba46-4fc63b543575-attr-2-type" class="er entityLabel">string</text><rect height="22" width="72.43855285644531" y="46" x="36.61909484863281" class="er attributeBoxEven"></rect><text transform="translate(41.61909484863281,57)" style="dominant-baseline: middle; font-size: 10.2px;" y="0" x="0" id="text-entity-SOLICITANTE-7bfce812-4324-55d3-ba46-4fc63b543575-attr-2-name" class="er entityLabel">nombre</text><rect height="22" width="22.68768310546875" y="46" x="109.05764770507812" class="er attributeBoxEven"></rect><text transform="translate(114.05764770507812,57)" style="dominant-baseline: middle; font-size: 10.2px;" y="0" x="0" id="text-entity-SOLICITANTE-7bfce812-4324-55d3-ba46-4fc63b543575-attr-2-key" class="er entityLabel"></text></g><g transform="translate(721.9586486816406,42 )" id="entity-FECHALIMITE-62373229-fc08-54ac-8bd0-729e5dd6e085"><rect height="68" width="106.36328125" y="0" x="0" class="er entityBox"></rect><text transform="translate(53.181640625,12)" style="dominant-baseline: middle; text-anchor: middle; font-size: 12px;" y="0" x="0" id="text-entity-FECHALIMITE-62373229-fc08-54ac-8bd0-729e5dd6e085" class="er entityLabel">FECHA_LIMITE</text><rect height="22" width="31.983408610026043" y="24" x="0" class="er attributeBoxOdd"></rect><text transform="translate(5,35)" style="dominant-baseline: middle; font-size: 10.2px;" y="0" x="0" id="text-entity-FECHALIMITE-62373229-fc08-54ac-8bd0-729e5dd6e085-attr-1-type" class="er entityLabel">int</text><rect height="22" width="50.794596354166664" y="24" x="31.983408610026043" class="er attributeBoxOdd"></rect><text transform="translate(36.983408610026046,35)" style="dominant-baseline: middle; font-size: 10.2px;" y="0" x="0" id="text-entity-FECHALIMITE-62373229-fc08-54ac-8bd0-729e5dd6e085-attr-1-name" class="er entityLabel">id_fecha</text><rect height="22" width="23.585276285807293" y="24" x="82.7780049641927" class="er attributeBoxOdd"></rect><text transform="translate(87.7780049641927,35)" style="dominant-baseline: middle; font-size: 10.2px;" y="0" x="0" id="text-entity-FECHALIMITE-62373229-fc08-54ac-8bd0-729e5dd6e085-attr-1-key" class="er entityLabel">PK</text><rect height="22" width="31.983408610026043" y="46" x="0" class="er attributeBoxEven"></rect><text transform="translate(5,57)" style="dominant-baseline: middle; font-size: 10.2px;" y="0" x="0" id="text-entity-FECHALIMITE-62373229-fc08-54ac-8bd0-729e5dd6e085-attr-2-type" class="er entityLabel">date</text><rect height="22" width="50.794596354166664" y="46" x="31.983408610026043" class="er attributeBoxEven"></rect><text transform="translate(36.983408610026046,57)" style="dominant-baseline: middle; font-size: 10.2px;" y="0" x="0" id="text-entity-FECHALIMITE-62373229-fc08-54ac-8bd0-729e5dd6e085-attr-2-name" class="er entityLabel">fecha</text><rect height="22" width="23.585276285807293" y="46" x="82.7780049641927" class="er attributeBoxEven"></rect><text transform="translate(87.7780049641927,57)" style="dominant-baseline: middle; font-size: 10.2px;" y="0" x="0" id="text-entity-FECHALIMITE-62373229-fc08-54ac-8bd0-729e5dd6e085-attr-2-key" class="er entityLabel"></text></g><g transform="translate(928.3219299316406,42 )" id="entity-RESPONSABLE-05e08063-3633-5cf4-bac1-c12724f2af59"><rect height="68" width="137.81155395507812" y="0" x="0" class="er entityBox"></rect><text transform="translate(68.90577697753906,12)" style="dominant-baseline: middle; text-anchor: middle; font-size: 12px;" y="0" x="0" id="text-entity-RESPONSABLE-05e08063-3633-5cf4-bac1-c12724f2af59" class="er entityLabel">RESPONSABLE</text><rect height="22" width="36.61909484863281" y="24" x="0" class="er attributeBoxOdd"></rect><text transform="translate(5,35)" style="dominant-baseline: middle; font-size: 10.2px;" y="0" x="0" id="text-entity-RESPONSABLE-05e08063-3633-5cf4-bac1-c12724f2af59-attr-1-type" class="er entityLabel">int</text><rect height="22" width="78.50477600097656" y="24" x="36.61909484863281" class="er attributeBoxOdd"></rect><text transform="translate(41.61909484863281,35)" style="dominant-baseline: middle; font-size: 10.2px;" y="0" x="0" id="text-entity-RESPONSABLE-05e08063-3633-5cf4-bac1-c12724f2af59-attr-1-name" class="er entityLabel">id_responsable</text><rect height="22" width="22.68768310546875" y="24" x="115.12387084960938" class="er attributeBoxOdd"></rect><text transform="translate(120.12387084960938,35)" style="dominant-baseline: middle; font-size: 10.2px;" y="0" x="0" id="text-entity-RESPONSABLE-05e08063-3633-5cf4-bac1-c12724f2af59-attr-1-key" class="er entityLabel">PK</text><rect height="22" width="36.61909484863281" y="46" x="0" class="er attributeBoxEven"></rect><text transform="translate(5,57)" style="dominant-baseline: middle; font-size: 10.2px;" y="0" x="0" id="text-entity-RESPONSABLE-05e08063-3633-5cf4-bac1-c12724f2af59-attr-2-type" class="er entityLabel">string</text><rect height="22" width="78.50477600097656" y="46" x="36.61909484863281" class="er attributeBoxEven"></rect><text transform="translate(41.61909484863281,57)" style="dominant-baseline: middle; font-size: 10.2px;" y="0" x="0" id="text-entity-RESPONSABLE-05e08063-3633-5cf4-bac1-c12724f2af59-attr-2-name" class="er entityLabel">nombre</text><rect height="22" width="22.68768310546875" y="46" x="115.12387084960938" class="er attributeBoxEven"></rect><text transform="translate(120.12387084960938,57)" style="dominant-baseline: middle; font-size: 10.2px;" y="0" x="0" id="text-entity-RESPONSABLE-05e08063-3633-5cf4-bac1-c12724f2af59-attr-2-key" class="er entityLabel"></text></g><g transform="translate(1166.1334838867188,42 )" id="entity-FECHARESPUESTA-8507776b-682b-54be-85b5-6a17b5fb2d74"><rect height="68" width="153.02685546875" y="0" x="0" class="er entityBox"></rect><text transform="translate(76.513427734375,12)" style="dominant-baseline: middle; text-anchor: middle; font-size: 12px;" y="0" x="0" id="text-entity-FECHARESPUESTA-8507776b-682b-54be-85b5-6a17b5fb2d74" class="er entityLabel">FECHA_RESPUESTA</text><rect height="22" width="31.0858154296875" y="24" x="0" class="er attributeBoxOdd"></rect><text transform="translate(5,35)" style="dominant-baseline: middle; font-size: 10.2px;" y="0" x="0" id="text-entity-FECHARESPUESTA-8507776b-682b-54be-85b5-6a17b5fb2d74-attr-1-type" class="er entityLabel">int</text><rect height="22" width="99.25335693359375" y="24" x="31.0858154296875" class="er attributeBoxOdd"></rect><text transform="translate(36.0858154296875,35)" style="dominant-baseline: middle; font-size: 10.2px;" y="0" x="0" id="text-entity-FECHARESPUESTA-8507776b-682b-54be-85b5-6a17b5fb2d74-attr-1-name" class="er entityLabel">id_fecha_respuesta</text><rect height="22" width="22.68768310546875" y="24" x="130.33917236328125" class="er attributeBoxOdd"></rect><text transform="translate(135.33917236328125,35)" style="dominant-baseline: middle; font-size: 10.2px;" y="0" x="0" id="text-entity-FECHARESPUESTA-8507776b-682b-54be-85b5-6a17b5fb2d74-attr-1-key" class="er entityLabel">PK</text><rect height="22" width="31.0858154296875" y="46" x="0" class="er attributeBoxEven"></rect><text transform="translate(5,57)" style="dominant-baseline: middle; font-size: 10.2px;" y="0" x="0" id="text-entity-FECHARESPUESTA-8507776b-682b-54be-85b5-6a17b5fb2d74-attr-2-type" class="er entityLabel">date</text><rect height="22" width="99.25335693359375" y="46" x="31.0858154296875" class="er attributeBoxEven"></rect><text transform="translate(36.0858154296875,57)" style="dominant-baseline: middle; font-size: 10.2px;" y="0" x="0" id="text-entity-FECHARESPUESTA-8507776b-682b-54be-85b5-6a17b5fb2d74-attr-2-name" class="er entityLabel">fecha</text><rect height="22" width="22.68768310546875" y="46" x="130.33917236328125" class="er attributeBoxEven"></rect><text transform="translate(135.33917236328125,57)" style="dominant-baseline: middle; font-size: 10.2px;" y="0" x="0" id="text-entity-FECHARESPUESTA-8507776b-682b-54be-85b5-6a17b5fb2d74-attr-2-key" class="er entityLabel"></text></g><g transform="translate(1419.1603393554688,42 )" id="entity-URGENCIA-1ce25047-e13d-561b-8557-7e15581a7e69"><rect height="68" width="122.99966430664062" y="0" x="0" class="er entityBox"></rect><text transform="translate(61.49983215332031,12)" style="dominant-baseline: middle; text-anchor: middle; font-size: 12px;" y="0" x="0" id="text-entity-URGENCIA-1ce25047-e13d-561b-8557-7e15581a7e69" class="er entityLabel">URGENCIA</text><rect height="22" width="36.61909484863281" y="24" x="0" class="er attributeBoxOdd"></rect><text transform="translate(5,35)" style="dominant-baseline: middle; font-size: 10.2px;" y="0" x="0" id="text-entity-URGENCIA-1ce25047-e13d-561b-8557-7e15581a7e69-attr-1-type" class="er entityLabel">int</text><rect height="22" width="63.69288635253906" y="24" x="36.61909484863281" class="er attributeBoxOdd"></rect><text transform="translate(41.61909484863281,35)" style="dominant-baseline: middle; font-size: 10.2px;" y="0" x="0" id="text-entity-URGENCIA-1ce25047-e13d-561b-8557-7e15581a7e69-attr-1-name" class="er entityLabel">id_urgencia</text><rect height="22" width="22.68768310546875" y="24" x="100.31198120117188" class="er attributeBoxOdd"></rect><text transform="translate(105.31198120117188,35)" style="dominant-baseline: middle; font-size: 10.2px;" y="0" x="0" id="text-entity-URGENCIA-1ce25047-e13d-561b-8557-7e15581a7e69-attr-1-key" class="er entityLabel">PK</text><rect height="22" width="36.61909484863281" y="46" x="0" class="er attributeBoxEven"></rect><text transform="translate(5,57)" style="dominant-baseline: middle; font-size: 10.2px;" y="0" x="0" id="text-entity-URGENCIA-1ce25047-e13d-561b-8557-7e15581a7e69-attr-2-type" class="er entityLabel">string</text><rect height="22" width="63.69288635253906" y="46" x="36.61909484863281" class="er attributeBoxEven"></rect><text transform="translate(41.61909484863281,57)" style="dominant-baseline: middle; font-size: 10.2px;" y="0" x="0" id="text-entity-URGENCIA-1ce25047-e13d-561b-8557-7e15581a7e69-attr-2-name" class="er entityLabel">nombre</text><rect height="22" width="22.68768310546875" y="46" x="100.31198120117188" class="er attributeBoxEven"></rect><text transform="translate(105.31198120117188,57)" style="dominant-baseline: middle; font-size: 10.2px;" y="0" x="0" id="text-entity-URGENCIA-1ce25047-e13d-561b-8557-7e15581a7e69-attr-2-key" class="er entityLabel"></text></g><g transform="translate(816.7970657348633,232 )" id="entity-OFICIO-10040917-b1ff-5aef-acc4-ab90bf129d43"><rect height="310" width="138.77386474609375" y="0" x="0" class="er entityBox"></rect><text transform="translate(69.38693237304688,12)" style="dominant-baseline: middle; text-anchor: middle; font-size: 12px;" y="0" x="0" id="text-entity-OFICIO-10040917-b1ff-5aef-acc4-ab90bf129d43" class="er entityLabel">OFICIO</text><rect height="22" width="36.61909484863281" y="24" x="0" class="er attributeBoxOdd"></rect><text transform="translate(5,35)" style="dominant-baseline: middle; font-size: 10.2px;" y="0" x="0" id="text-entity-OFICIO-10040917-b1ff-5aef-acc4-ab90bf129d43-attr-1-type" class="er entityLabel">int</text><rect height="22" width="79.46708679199219" y="24" x="36.61909484863281" class="er attributeBoxOdd"></rect><text transform="translate(41.61909484863281,35)" style="dominant-baseline: middle; font-size: 10.2px;" y="0" x="0" id="text-entity-OFICIO-10040917-b1ff-5aef-acc4-ab90bf129d43-attr-1-name" class="er entityLabel">id_oficio</text><rect height="22" width="22.68768310546875" y="24" x="116.086181640625" class="er attributeBoxOdd"></rect><text transform="translate(121.086181640625,35)" style="dominant-baseline: middle; font-size: 10.2px;" y="0" x="0" id="text-entity-OFICIO-10040917-b1ff-5aef-acc4-ab90bf129d43-attr-1-key" class="er entityLabel">PK</text><rect height="22" width="36.61909484863281" y="46" x="0" class="er attributeBoxEven"></rect><text transform="translate(5,57)" style="dominant-baseline: middle; font-size: 10.2px;" y="0" x="0" id="text-entity-OFICIO-10040917-b1ff-5aef-acc4-ab90bf129d43-attr-2-type" class="er entityLabel">int</text><rect height="22" width="79.46708679199219" y="46" x="36.61909484863281" class="er attributeBoxEven"></rect><text transform="translate(41.61909484863281,57)" style="dominant-baseline: middle; font-size: 10.2px;" y="0" x="0" id="text-entity-OFICIO-10040917-b1ff-5aef-acc4-ab90bf129d43-attr-2-name" class="er entityLabel">id_colaborador</text><rect height="22" width="22.68768310546875" y="46" x="116.086181640625" class="er attributeBoxEven"></rect><text transform="translate(121.086181640625,57)" style="dominant-baseline: middle; font-size: 10.2px;" y="0" x="0" id="text-entity-OFICIO-10040917-b1ff-5aef-acc4-ab90bf129d43-attr-2-key" class="er entityLabel">FK</text><rect height="22" width="36.61909484863281" y="68" x="0" class="er attributeBoxOdd"></rect><text transform="translate(5,79)" style="dominant-baseline: middle; font-size: 10.2px;" y="0" x="0" id="text-entity-OFICIO-10040917-b1ff-5aef-acc4-ab90bf129d43-attr-3-type" class="er entityLabel">int</text><rect height="22" width="79.46708679199219" y="68" x="36.61909484863281" class="er attributeBoxOdd"></rect><text transform="translate(41.61909484863281,79)" style="dominant-baseline: middle; font-size: 10.2px;" y="0" x="0" id="text-entity-OFICIO-10040917-b1ff-5aef-acc4-ab90bf129d43-attr-3-name" class="er entityLabel">n_folio</text><rect height="22" width="22.68768310546875" y="68" x="116.086181640625" class="er attributeBoxOdd"></rect><text transform="translate(121.086181640625,79)" style="dominant-baseline: middle; font-size: 10.2px;" y="0" x="0" id="text-entity-OFICIO-10040917-b1ff-5aef-acc4-ab90bf129d43-attr-3-key" class="er entityLabel"></text><rect height="22" width="36.61909484863281" y="90" x="0" class="er attributeBoxEven"></rect><text transform="translate(5,101)" style="dominant-baseline: middle; font-size: 10.2px;" y="0" x="0" id="text-entity-OFICIO-10040917-b1ff-5aef-acc4-ab90bf129d43-attr-4-type" class="er entityLabel">int</text><rect height="22" width="79.46708679199219" y="90" x="36.61909484863281" class="er attributeBoxEven"></rect><text transform="translate(41.61909484863281,101)" style="dominant-baseline: middle; font-size: 10.2px;" y="0" x="0" id="text-entity-OFICIO-10040917-b1ff-5aef-acc4-ab90bf129d43-attr-4-name" class="er entityLabel">n_dependiente</text><rect height="22" width="22.68768310546875" y="90" x="116.086181640625" class="er attributeBoxEven"></rect><text transform="translate(121.086181640625,101)" style="dominant-baseline: middle; font-size: 10.2px;" y="0" x="0" id="text-entity-OFICIO-10040917-b1ff-5aef-acc4-ab90bf129d43-attr-4-key" class="er entityLabel"></text><rect height="22" width="36.61909484863281" y="112" x="0" class="er attributeBoxOdd"></rect><text transform="translate(5,123)" style="dominant-baseline: middle; font-size: 10.2px;" y="0" x="0" id="text-entity-OFICIO-10040917-b1ff-5aef-acc4-ab90bf129d43-attr-5-type" class="er entityLabel">int</text><rect height="22" width="79.46708679199219" y="112" x="36.61909484863281" class="er attributeBoxOdd"></rect><text transform="translate(41.61909484863281,123)" style="dominant-baseline: middle; font-size: 10.2px;" y="0" x="0" id="text-entity-OFICIO-10040917-b1ff-5aef-acc4-ab90bf129d43-attr-5-name" class="er entityLabel">id_fecha_rec</text><rect height="22" width="22.68768310546875" y="112" x="116.086181640625" class="er attributeBoxOdd"></rect><text transform="translate(121.086181640625,123)" style="dominant-baseline: middle; font-size: 10.2px;" y="0" x="0" id="text-entity-OFICIO-10040917-b1ff-5aef-acc4-ab90bf129d43-attr-5-key" class="er entityLabel">FK</text><rect height="22" width="36.61909484863281" y="134" x="0" class="er attributeBoxEven"></rect><text transform="translate(5,145)" style="dominant-baseline: middle; font-size: 10.2px;" y="0" x="0" id="text-entity-OFICIO-10040917-b1ff-5aef-acc4-ab90bf129d43-attr-6-type" class="er entityLabel">int</text><rect height="22" width="79.46708679199219" y="134" x="36.61909484863281" class="er attributeBoxEven"></rect><text transform="translate(41.61909484863281,145)" style="dominant-baseline: middle; font-size: 10.2px;" y="0" x="0" id="text-entity-OFICIO-10040917-b1ff-5aef-acc4-ab90bf129d43-attr-6-name" class="er entityLabel">id_fecha_lim</text><rect height="22" width="22.68768310546875" y="134" x="116.086181640625" class="er attributeBoxEven"></rect><text transform="translate(121.086181640625,145)" style="dominant-baseline: middle; font-size: 10.2px;" y="0" x="0" id="text-entity-OFICIO-10040917-b1ff-5aef-acc4-ab90bf129d43-attr-6-key" class="er entityLabel">FK</text><rect height="22" width="36.61909484863281" y="156" x="0" class="er attributeBoxOdd"></rect><text transform="translate(5,167)" style="dominant-baseline: middle; font-size: 10.2px;" y="0" x="0" id="text-entity-OFICIO-10040917-b1ff-5aef-acc4-ab90bf129d43-attr-7-type" class="er entityLabel">int</text><rect height="22" width="79.46708679199219" y="156" x="36.61909484863281" class="er attributeBoxOdd"></rect><text transform="translate(41.61909484863281,167)" style="dominant-baseline: middle; font-size: 10.2px;" y="0" x="0" id="text-entity-OFICIO-10040917-b1ff-5aef-acc4-ab90bf129d43-attr-7-name" class="er entityLabel">id_fecha_res</text><rect height="22" width="22.68768310546875" y="156" x="116.086181640625" class="er attributeBoxOdd"></rect><text transform="translate(121.086181640625,167)" style="dominant-baseline: middle; font-size: 10.2px;" y="0" x="0" id="text-entity-OFICIO-10040917-b1ff-5aef-acc4-ab90bf129d43-attr-7-key" class="er entityLabel">FK</text><rect height="22" width="36.61909484863281" y="178" x="0" class="er attributeBoxEven"></rect><text transform="translate(5,189)" style="dominant-baseline: middle; font-size: 10.2px;" y="0" x="0" id="text-entity-OFICIO-10040917-b1ff-5aef-acc4-ab90bf129d43-attr-8-type" class="er entityLabel">int</text><rect height="22" width="79.46708679199219" y="178" x="36.61909484863281" class="er attributeBoxEven"></rect><text transform="translate(41.61909484863281,189)" style="dominant-baseline: middle; font-size: 10.2px;" y="0" x="0" id="text-entity-OFICIO-10040917-b1ff-5aef-acc4-ab90bf129d43-attr-8-name" class="er entityLabel">id_solicitante</text><rect height="22" width="22.68768310546875" y="178" x="116.086181640625" class="er attributeBoxEven"></rect><text transform="translate(121.086181640625,189)" style="dominant-baseline: middle; font-size: 10.2px;" y="0" x="0" id="text-entity-OFICIO-10040917-b1ff-5aef-acc4-ab90bf129d43-attr-8-key" class="er entityLabel">FK</text><rect height="22" width="36.61909484863281" y="200" x="0" class="er attributeBoxOdd"></rect><text transform="translate(5,211)" style="dominant-baseline: middle; font-size: 10.2px;" y="0" x="0" id="text-entity-OFICIO-10040917-b1ff-5aef-acc4-ab90bf129d43-attr-9-type" class="er entityLabel">string</text><rect height="22" width="79.46708679199219" y="200" x="36.61909484863281" class="er attributeBoxOdd"></rect><text transform="translate(41.61909484863281,211)" style="dominant-baseline: middle; font-size: 10.2px;" y="0" x="0" id="text-entity-OFICIO-10040917-b1ff-5aef-acc4-ab90bf129d43-attr-9-name" class="er entityLabel">asunto</text><rect height="22" width="22.68768310546875" y="200" x="116.086181640625" class="er attributeBoxOdd"></rect><text transform="translate(121.086181640625,211)" style="dominant-baseline: middle; font-size: 10.2px;" y="0" x="0" id="text-entity-OFICIO-10040917-b1ff-5aef-acc4-ab90bf129d43-attr-9-key" class="er entityLabel"></text><rect height="22" width="36.61909484863281" y="222" x="0" class="er attributeBoxEven"></rect><text transform="translate(5,233)" style="dominant-baseline: middle; font-size: 10.2px;" y="0" x="0" id="text-entity-OFICIO-10040917-b1ff-5aef-acc4-ab90bf129d43-attr-10-type" class="er entityLabel">int</text><rect height="22" width="79.46708679199219" y="222" x="36.61909484863281" class="er attributeBoxEven"></rect><text transform="translate(41.61909484863281,233)" style="dominant-baseline: middle; font-size: 10.2px;" y="0" x="0" id="text-entity-OFICIO-10040917-b1ff-5aef-acc4-ab90bf129d43-attr-10-name" class="er entityLabel">id_responsable</text><rect height="22" width="22.68768310546875" y="222" x="116.086181640625" class="er attributeBoxEven"></rect><text transform="translate(121.086181640625,233)" style="dominant-baseline: middle; font-size: 10.2px;" y="0" x="0" id="text-entity-OFICIO-10040917-b1ff-5aef-acc4-ab90bf129d43-attr-10-key" class="er entityLabel">FK</text><rect height="22" width="36.61909484863281" y="244" x="0" class="er attributeBoxOdd"></rect><text transform="translate(5,255)" style="dominant-baseline: middle; font-size: 10.2px;" y="0" x="0" id="text-entity-OFICIO-10040917-b1ff-5aef-acc4-ab90bf129d43-attr-11-type" class="er entityLabel">string</text><rect height="22" width="79.46708679199219" y="244" x="36.61909484863281" class="er attributeBoxOdd"></rect><text transform="translate(41.61909484863281,255)" style="dominant-baseline: middle; font-size: 10.2px;" y="0" x="0" id="text-entity-OFICIO-10040917-b1ff-5aef-acc4-ab90bf129d43-attr-11-name" class="er entityLabel">observaciones</text><rect height="22" width="22.68768310546875" y="244" x="116.086181640625" class="er attributeBoxOdd"></rect><text transform="translate(121.086181640625,255)" style="dominant-baseline: middle; font-size: 10.2px;" y="0" x="0" id="text-entity-OFICIO-10040917-b1ff-5aef-acc4-ab90bf129d43-attr-11-key" class="er entityLabel"></text><rect height="22" width="36.61909484863281" y="266" x="0" class="er attributeBoxEven"></rect><text transform="translate(5,277)" style="dominant-baseline: middle; font-size: 10.2px;" y="0" x="0" id="text-entity-OFICIO-10040917-b1ff-5aef-acc4-ab90bf129d43-attr-12-type" class="er entityLabel">string</text><rect height="22" width="79.46708679199219" y="266" x="36.61909484863281" class="er attributeBoxEven"></rect><text transform="translate(41.61909484863281,277)" style="dominant-baseline: middle; font-size: 10.2px;" y="0" x="0" id="text-entity-OFICIO-10040917-b1ff-5aef-acc4-ab90bf129d43-attr-12-name" class="er entityLabel">archivado</text><rect height="22" width="22.68768310546875" y="266" x="116.086181640625" class="er attributeBoxEven"></rect><text transform="translate(121.086181640625,277)" style="dominant-baseline: middle; font-size: 10.2px;" y="0" x="0" id="text-entity-OFICIO-10040917-b1ff-5aef-acc4-ab90bf129d43-attr-12-key" class="er entityLabel"></text><rect height="22" width="36.61909484863281" y="288" x="0" class="er attributeBoxOdd"></rect><text transform="translate(5,299)" style="dominant-baseline: middle; font-size: 10.2px;" y="0" x="0" id="text-entity-OFICIO-10040917-b1ff-5aef-acc4-ab90bf129d43-attr-13-type" class="er entityLabel">int</text><rect height="22" width="79.46708679199219" y="288" x="36.61909484863281" class="er attributeBoxOdd"></rect><text transform="translate(41.61909484863281,299)" style="dominant-baseline: middle; font-size: 10.2px;" y="0" x="0" id="text-entity-OFICIO-10040917-b1ff-5aef-acc4-ab90bf129d43-attr-13-name" class="er entityLabel">id_pdf</text><rect height="22" width="22.68768310546875" y="288" x="116.086181640625" class="er attributeBoxOdd"></rect><text transform="translate(121.086181640625,299)" style="dominant-baseline: middle; font-size: 10.2px;" y="0" x="0" id="text-entity-OFICIO-10040917-b1ff-5aef-acc4-ab90bf129d43-attr-13-key" class="er entityLabel">FK</text></g><g transform="translate(812.9128494262695,642 )" id="entity-PDF-e8f61c78-2189-58dd-8f90-49b30f3acc57"><rect height="112" width="146.54229736328125" y="0" x="0" class="er entityBox"></rect><text transform="translate(73.27114868164062,12)" style="dominant-baseline: middle; text-anchor: middle; font-size: 12px;" y="0" x="0" id="text-entity-PDF-e8f61c78-2189-58dd-8f90-49b30f3acc57" class="er entityLabel">PDF</text><rect height="22" width="36.61909484863281" y="24" x="0" class="er attributeBoxOdd"></rect><text transform="translate(5,35)" style="dominant-baseline: middle; font-size: 10.2px;" y="0" x="0" id="text-entity-PDF-e8f61c78-2189-58dd-8f90-49b30f3acc57-attr-1-type" class="er entityLabel">int</text><rect height="22" width="87.23551940917969" y="24" x="36.61909484863281" class="er attributeBoxOdd"></rect><text transform="translate(41.61909484863281,35)" style="dominant-baseline: middle; font-size: 10.2px;" y="0" x="0" id="text-entity-PDF-e8f61c78-2189-58dd-8f90-49b30f3acc57-attr-1-name" class="er entityLabel">id_pdf</text><rect height="22" width="22.68768310546875" y="24" x="123.8546142578125" class="er attributeBoxOdd"></rect><text transform="translate(128.8546142578125,35)" style="dominant-baseline: middle; font-size: 10.2px;" y="0" x="0" id="text-entity-PDF-e8f61c78-2189-58dd-8f90-49b30f3acc57-attr-1-key" class="er entityLabel">PK</text><rect height="22" width="36.61909484863281" y="46" x="0" class="er attributeBoxEven"></rect><text transform="translate(5,57)" style="dominant-baseline: middle; font-size: 10.2px;" y="0" x="0" id="text-entity-PDF-e8f61c78-2189-58dd-8f90-49b30f3acc57-attr-2-type" class="er entityLabel">string</text><rect height="22" width="87.23551940917969" y="46" x="36.61909484863281" class="er attributeBoxEven"></rect><text transform="translate(41.61909484863281,57)" style="dominant-baseline: middle; font-size: 10.2px;" y="0" x="0" id="text-entity-PDF-e8f61c78-2189-58dd-8f90-49b30f3acc57-attr-2-name" class="er entityLabel">archivo</text><rect height="22" width="22.68768310546875" y="46" x="123.8546142578125" class="er attributeBoxEven"></rect><text transform="translate(128.8546142578125,57)" style="dominant-baseline: middle; font-size: 10.2px;" y="0" x="0" id="text-entity-PDF-e8f61c78-2189-58dd-8f90-49b30f3acc57-attr-2-key" class="er entityLabel"></text><rect height="22" width="36.61909484863281" y="68" x="0" class="er attributeBoxOdd"></rect><text transform="translate(5,79)" style="dominant-baseline: middle; font-size: 10.2px;" y="0" x="0" id="text-entity-PDF-e8f61c78-2189-58dd-8f90-49b30f3acc57-attr-3-type" class="er entityLabel">int</text><rect height="22" width="87.23551940917969" y="68" x="36.61909484863281" class="er attributeBoxOdd"></rect><text transform="translate(41.61909484863281,79)" style="dominant-baseline: middle; font-size: 10.2px;" y="0" x="0" id="text-entity-PDF-e8f61c78-2189-58dd-8f90-49b30f3acc57-attr-3-name" class="er entityLabel">id_oficio</text><rect height="22" width="22.68768310546875" y="68" x="123.8546142578125" class="er attributeBoxOdd"></rect><text transform="translate(128.8546142578125,79)" style="dominant-baseline: middle; font-size: 10.2px;" y="0" x="0" id="text-entity-PDF-e8f61c78-2189-58dd-8f90-49b30f3acc57-attr-3-key" class="er entityLabel">FK</text><rect height="22" width="36.61909484863281" y="90" x="0" class="er attributeBoxEven"></rect><text transform="translate(5,101)" style="dominant-baseline: middle; font-size: 10.2px;" y="0" x="0" id="text-entity-PDF-e8f61c78-2189-58dd-8f90-49b30f3acc57-attr-4-type" class="er entityLabel">date</text><rect height="22" width="87.23551940917969" y="90" x="36.61909484863281" class="er attributeBoxEven"></rect><text transform="translate(41.61909484863281,101)" style="dominant-baseline: middle; font-size: 10.2px;" y="0" x="0" id="text-entity-PDF-e8f61c78-2189-58dd-8f90-49b30f3acc57-attr-4-name" class="er entityLabel">fecha_de_subida</text><rect height="22" width="22.68768310546875" y="90" x="123.8546142578125" class="er attributeBoxEven"></rect><text transform="translate(128.8546142578125,101)" style="dominant-baseline: middle; font-size: 10.2px;" y="0" x="0" id="text-entity-PDF-e8f61c78-2189-58dd-8f90-49b30f3acc57-attr-4-key" class="er entityLabel"></text></g><g transform="translate(1642.1600036621094,20 )" id="entity-USUARIO-2dbea479-c464-5e02-9ddf-36fc948251bd"><rect height="112" width="113.93524169921875" y="0" x="0" class="er entityBox"></rect><text transform="translate(56.967620849609375,12)" style="dominant-baseline: middle; text-anchor: middle; font-size: 12px;" y="0" x="0" id="text-entity-USUARIO-2dbea479-c464-5e02-9ddf-36fc948251bd" class="er entityLabel">USUARIO</text><rect height="22" width="36.61909484863281" y="24" x="0" class="er attributeBoxOdd"></rect><text transform="translate(5,35)" style="dominant-baseline: middle; font-size: 10.2px;" y="0" x="0" id="text-entity-USUARIO-2dbea479-c464-5e02-9ddf-36fc948251bd-attr-1-type" class="er entityLabel">int</text><rect height="22" width="54.62846374511719" y="24" x="36.61909484863281" class="er attributeBoxOdd"></rect><text transform="translate(41.61909484863281,35)" style="dominant-baseline: middle; font-size: 10.2px;" y="0" x="0" id="text-entity-USUARIO-2dbea479-c464-5e02-9ddf-36fc948251bd-attr-1-name" class="er entityLabel">id_user</text><rect height="22" width="22.68768310546875" y="24" x="91.24755859375" class="er attributeBoxOdd"></rect><text transform="translate(96.24755859375,35)" style="dominant-baseline: middle; font-size: 10.2px;" y="0" x="0" id="text-entity-USUARIO-2dbea479-c464-5e02-9ddf-36fc948251bd-attr-1-key" class="er entityLabel">PK</text><rect height="22" width="36.61909484863281" y="46" x="0" class="er attributeBoxEven"></rect><text transform="translate(5,57)" style="dominant-baseline: middle; font-size: 10.2px;" y="0" x="0" id="text-entity-USUARIO-2dbea479-c464-5e02-9ddf-36fc948251bd-attr-2-type" class="er entityLabel">string</text><rect height="22" width="54.62846374511719" y="46" x="36.61909484863281" class="er attributeBoxEven"></rect><text transform="translate(41.61909484863281,57)" style="dominant-baseline: middle; font-size: 10.2px;" y="0" x="0" id="text-entity-USUARIO-2dbea479-c464-5e02-9ddf-36fc948251bd-attr-2-name" class="er entityLabel">username</text><rect height="22" width="22.68768310546875" y="46" x="91.24755859375" class="er attributeBoxEven"></rect><text transform="translate(96.24755859375,57)" style="dominant-baseline: middle; font-size: 10.2px;" y="0" x="0" id="text-entity-USUARIO-2dbea479-c464-5e02-9ddf-36fc948251bd-attr-2-key" class="er entityLabel"></text><rect height="22" width="36.61909484863281" y="68" x="0" class="er attributeBoxOdd"></rect><text transform="translate(5,79)" style="dominant-baseline: middle; font-size: 10.2px;" y="0" x="0" id="text-entity-USUARIO-2dbea479-c464-5e02-9ddf-36fc948251bd-attr-3-type" class="er entityLabel">string</text><rect height="22" width="54.62846374511719" y="68" x="36.61909484863281" class="er attributeBoxOdd"></rect><text transform="translate(41.61909484863281,79)" style="dominant-baseline: middle; font-size: 10.2px;" y="0" x="0" id="text-entity-USUARIO-2dbea479-c464-5e02-9ddf-36fc948251bd-attr-3-name" class="er entityLabel">password</text><rect height="22" width="22.68768310546875" y="68" x="91.24755859375" class="er attributeBoxOdd"></rect><text transform="translate(96.24755859375,79)" style="dominant-baseline: middle; font-size: 10.2px;" y="0" x="0" id="text-entity-USUARIO-2dbea479-c464-5e02-9ddf-36fc948251bd-attr-3-key" class="er entityLabel"></text><rect height="22" width="36.61909484863281" y="90" x="0" class="er attributeBoxEven"></rect><text transform="translate(5,101)" style="dominant-baseline: middle; font-size: 10.2px;" y="0" x="0" id="text-entity-USUARIO-2dbea479-c464-5e02-9ddf-36fc948251bd-attr-4-type" class="er entityLabel">string</text><rect height="22" width="54.62846374511719" y="90" x="36.61909484863281" class="er attributeBoxEven"></rect><text transform="translate(41.61909484863281,101)" style="dominant-baseline: middle; font-size: 10.2px;" y="0" x="0" id="text-entity-USUARIO-2dbea479-c464-5e02-9ddf-36fc948251bd-attr-4-name" class="er entityLabel">role</text><rect height="22" width="22.68768310546875" y="90" x="91.24755859375" class="er attributeBoxEven"></rect><text transform="translate(96.24755859375,101)" style="dominant-baseline: middle; font-size: 10.2px;" y="0" x="0" id="text-entity-USUARIO-2dbea479-c464-5e02-9ddf-36fc948251bd-attr-4-key" class="er entityLabel"></text></g><rect height="14" width="28.28125" y="262.9650573730469" x="420.95147705078125" class="er relationshipLabelBox"></rect><text style="text-anchor: middle; dominant-baseline: middle; font-size: 12px;" y="269.9650573730469" x="435.09210205078125" id="rel1" class="er relationshipLabel">tiene</text><rect height="14" width="55.240234375" y="254.99465942382812" x="519.577880859375" class="er relationshipLabelBox"></rect><text style="text-anchor: middle; dominant-baseline: middle; font-size: 12px;" y="261.9946594238281" x="547.197998046875" id="rel2" class="er relationshipLabel">pertenece</text><rect height="14" width="39.37890625" y="238.84951782226562" x="643.7772827148438" class="er relationshipLabelBox"></rect><text style="text-anchor: middle; dominant-baseline: middle; font-size: 12px;" y="245.84951782226562" x="663.4667358398438" id="rel3" class="er relationshipLabel">solicita</text><rect height="14" width="34.1640625" y="180.8021240234375" x="766.4829711914062" class="er relationshipLabelBox"></rect><text style="text-anchor: middle; dominant-baseline: middle; font-size: 12px;" y="187.8021240234375" x="783.5650024414062" id="rel4" class="er relationshipLabel">asigna</text><rect height="14" width="47.154296875" y="180.80213928222656" x="965.2258911132812" class="er relationshipLabelBox"></rect><text style="text-anchor: middle; dominant-baseline: middle; font-size: 12px;" y="187.80213928222656" x="988.8030395507812" id="rel5" class="er relationshipLabel">asignado</text><rect height="14" width="49.43359375" y="241.62867736816406" x="1097.396484375" class="er relationshipLabelBox"></rect><text style="text-anchor: middle; dominant-baseline: middle; font-size: 12px;" y="248.62867736816406" x="1122.11328125" id="rel6" class="er relationshipLabel">responde</text><rect height="14" width="44.86328125" y="256.12994384765625" x="1217.0322265625" class="er relationshipLabelBox"></rect><text style="text-anchor: middle; dominant-baseline: middle; font-size: 12px;" y="263.12994384765625" x="1239.4638671875" id="rel7" class="er relationshipLabel">clasifica</text><rect height="14" width="46.955078125" y="585" x="862.7064819335938" class="er relationshipLabelBox"></rect><text style="text-anchor: middle; dominant-baseline: middle; font-size: 12px;" y="592" x="886.1840209960938" id="rel8" class="er relationshipLabel">asociado</text><rect height="14" width="45.6015625" y="264.3302001953125" x="1317.344970703125" class="er relationshipLabelBox"></rect><text style="text-anchor: middle; dominant-baseline: middle; font-size: 12px;" y="271.3302001953125" x="1340.145751953125" id="rel9" class="er relationshipLabel">gestiona</text></svg>